Coordinates
version=1
nRows=11
nColumns=36
inDegrees=yes

Units are S.I. units (second, meters, Newtons, ...)
If the header above contains a line with 'inDegrees', this indicates whether rotational values are in degrees (yes) or radians (no).

endheader
time	pelvis_tilt	pelvis_list	pelvis_rotation	pelvis_tx	pelvis_ty	pelvis_tz	hip_flexion_r	hip_adduction_r	hip_rotation_r	knee_angle_r	knee_angle_r_beta	ankle_angle_r	subtalar_angle_r	mtp_angle_r	hip_flexion_l	hip_adduction_l	hip_rotation_l	knee_angle_l	knee_angle_l_beta	ankle_angle_l	subtalar_angle_l	mtp_angle_l	lumbar_extension	lumbar_bending	lumbar_rotation	arm_flex_r	arm_add_r	arm_rot_r	elbow_flex_r	pro_sup_r	arm_flex_l	arm_add_l	arm_rot_l	elbow_flex_l	pro_sup_l
      0.00000000	      2.86478208	     -3.02074134	      7.43361964	      0.58759855	      0.98138022	     -0.18396945	     29.06773988	     -0.17914566	      1.59722527	     36.82055701	      0.64263995	      5.12165426	    -16.08812088	     -5.98461217	      7.64510982	      5.18094120	      6.02371880	     25.09770917	      0.43803766	     16.81931289	    -12.30149638	     -5.98461217	    -14.10307358	      0.30511068	     -3.06708184	     39.70116248	      9.03374737	     63.36476604	    122.54297702	    107.73482959	     44.91181207	      3.63820003	     57.22653254	    120.79392958	    102.69608339
      0.01666670	      1.45968623	     -3.18839551	      8.12237219	      0.59179564	      0.97689635	     -0.18442732	     30.89207601	     -1.13457653	      1.65170089	     35.54985528	      0.62046202	      7.31042761	    -13.69140683	     -6.07622000	      9.23578058	      6.16775621	      9.89253743	     25.83502279	      0.45090621	     17.50139205	    -13.12252598	     -6.07622000	    -12.21947178	      1.29826541	     -3.19419527	     40.68888287	      9.69773955	     66.68789053	    122.66171542	    107.50988465	     45.22881028	      3.49652825	     62.44925178	    125.52448786	    102.16199890
      0.03333330	     -0.13194063	     -3.68155508	      7.25888894	      0.59444539	      0.96681310	     -0.18415300	     32.97260797	     -0.73884203	      2.13815397	     34.36856521	      0.59984462	      9.45737978	    -12.75417069	     -6.14358601	     11.39004885	      5.79085269	      9.66487386	     26.60605482	      0.46436326	     19.77377530	    -12.60609183	     -6.14358601	    -10.36754144	      2.05016618	     -2.02245648	     39.83919762	      9.49325775	     67.78478981	    122.51460642	    106.99481560	     44.50317319	      3.93639545	     65.05318029	    127.61969226	    101.44303946
      0.05000000	     -0.83978051	     -3.80897240	      6.50315652	      0.59495728	      0.96457253	     -0.18367389	     34.74110509	     -0.37483282	      3.10233189	     33.18411145	      0.57917200	     10.08465775	    -13.36081721	     -6.36479086	     12.81862096	      5.78335984	      9.52722579	     28.10631265	      0.49054770	     20.77544691	    -12.06518087	     -6.36479086	    -10.19726135	      2.34184843	     -1.06474805	     39.83212869	      9.79263452	     69.43998476	    121.43813426	    104.46432282	     44.59665143	      4.26112518	     67.23253906	    128.06221217	     97.71065966
      0.06666670	     -1.46992652	     -4.45275786	      5.89860140	      0.59191371	      0.96117504	     -0.18159809	     35.88997424	      0.35950590	      3.75214138	     31.32703184	      0.54675985	     10.26953401	    -14.47163995	     -6.39948862	     14.49098800	      5.09447454	      8.97685804	     29.70417286	      0.51843562	     22.10335327	    -11.55384794	     -6.39948862	    -10.29946063	      3.23635629	     -0.25872740	     39.47589604	      9.38546155	     69.04540455	    120.80050829	    104.01114177	     44.75593739	      4.11469255	     68.25677134	    128.53339233	     97.17994388
      0.08333330	     -1.96456097	     -4.69737845	      5.25614609	      0.58800968	      0.95674942	     -0.18418011	     37.26841579	      0.80657407	      4.72660789	     29.96934300	      0.52306371	     10.36868425	    -14.29428413	     -6.43679947	     16.76338750	      4.70250447	      7.80554498	     32.66756390	      0.57015655	     22.95260746	    -10.18377333	     -6.43679947	    -10.73970906	      3.57665889	      0.09534337	     39.61204817	      9.51126440	     69.79848701	    119.99346625	    103.24675380	     44.76305410	      3.80784496	     68.49847167	    128.18654086	     96.28301345
      0.10000000	     -2.57128043	     -5.02374085	      4.92404867	      0.58495694	      0.95146685	     -0.18186266	     38.54404322	      1.24726350	      5.79770674	     27.78813830	      0.48499451	      9.91258623	    -15.19307931	     -6.47806190	     18.79356887	      4.20659180	      6.76831588	     34.69843392	      0.60560192	     24.14845935	     -8.68698583	     -6.47806190	    -11.13589188	      3.77336894	      0.52330887	     39.93661220	      9.63893894	     69.69226930	    119.38948416	    102.03628482	     45.78923349	      3.67970502	     68.80737432	    127.61940281	     95.02476094
      0.11666670	     -2.91473952	     -5.08045499	      4.69771746	      0.57737612	      0.94814876	     -0.18257504	     39.86208448	      1.31837883	      6.33189222	     26.23663405	      0.45791565	      9.55258088	    -15.12691602	     -6.49662976	     20.94045930	      4.12742214	      6.02124264	     37.27811226	      0.65062580	     23.86964435	     -8.50775994	     -6.49662976	    -12.29229306	      3.74718978	      0.80149280	     41.15895949	      9.94233500	     69.14373013	    119.03776172	    101.41972120	     47.61049776	      3.68990470	     68.43907209	    126.96510812	     94.49267303
      0.13333330	     -3.34664597	     -5.25217986	      4.55954530	      0.57016891	      0.94586006	     -0.18313332	     41.43975685	      1.46476379	      6.85999560	     24.83912447	      0.43352451	      8.59415395	    -15.20365551	     -6.51534823	     22.70026415	      3.93489306	      5.35545129	     38.98667630	      0.68044587	     24.11167423	     -7.94890029	     -6.51534823	    -13.39256761	      3.79779284	      1.15630592	     42.16984733	      9.94963480	     69.17911710	    118.44671729	    100.80162679	     49.37484203	      3.68071240	     68.36770987	    126.12716152	     93.89798644
      0.15000000	     -3.87535766	     -5.12762770	      4.24088310	      0.56345107	      0.93746718	     -0.18334783	     43.44862616	      1.34027353	      7.24378425	     23.49481626	      0.41006190	      6.62968144	    -16.26213207	     -6.55343629	     25.26017256	      3.85611436	      4.07280001	     41.77894380	      0.72918013	     24.36110234	     -6.24946505	     -6.55343629	    -14.65254382	      3.43734644	      1.52978568	     43.18122152	      9.74449268	     69.12001115	    118.36536807	     99.54317787	     51.65220336	      3.68251567	     69.21679124	    125.55172329	     92.47072343
      0.16666670	     -4.56345677	     -4.99608243	      3.69890369	      0.56067704	      0.92388570	     -0.18082603	     45.93207719	      1.43770350	      7.88760566	     23.25122215	      0.40581038	      5.51156989	    -17.15811441	     -6.82053673	     27.81638349	      3.81142476	      3.13369104	     44.17565330	      0.77101060	     25.08240007	     -5.86382039	     -6.82053673	    -15.53559463	      2.92601610	      2.05448955	     44.92704458	     10.01482109	     69.28749958	    118.21683285	     93.77986591	     53.67772116	      3.97120521	     69.73728115	    125.47649625	     83.93246993
